<svg id="Beer" xmlns="http://www.w3.org/2000/svg" viewBox="0 0 200 200"><defs><style>.cls-1,.cls-2{fill:none;stroke-linecap:round;stroke-linejoin:round;stroke-width:2px;}.cls-1{stroke:#db667b;}.cls-2{stroke:#352b20;}</style></defs><title>Beer</title><g id="BeerSet"><path id="Handle" class="cls-1" d="M146.14,94.51h30.19v36.22a12.11,12.11,0,0,1-12.07,12.08H146.14"/><path id="Body" class="cls-1" d="M146.14,79.41V173A17.78,17.78,0,0,1,128,191.11H55.58A17.79,17.79,0,0,1,37.47,173V79.41"/><path id="BeerTop" data-name="Beer" class="cls-2" d="M134.07,34.13a35.57,35.57,0,0,0-7.85,1.21,36,36,0,0,0-68.83,0,35.48,35.48,0,0,0-7.85-1.21,24.15,24.15,0,0,0,0,48.3H61.62v36.23a12.08,12.08,0,0,0,24.15,0V82.43h48.3a24.15,24.15,0,0,0,0-48.3Z"/></g></svg>
