<svg id="Burger" xmlns="http://www.w3.org/2000/svg" viewBox="0 0 200 200"><defs><style>.cls-1,.cls-2{fill:none;stroke-linecap:round;stroke-linejoin:round;stroke-width:2px;}.cls-1{stroke:#da667a;}.cls-2{stroke:#342a20;}</style></defs><title>Burger</title><g id="BurgerSet"><path id="BunBottom" class="cls-1" d="M24,82.13h0A63.52,63.52,0,0,1,87.33,18.8h25.34A63.52,63.52,0,0,1,176,82.13"/><path id="BunTop" class="cls-1" d="M176,151.8h0a31.36,31.36,0,0,1-31.67,31.67H55.67A31.36,31.36,0,0,1,24,151.8h0"/><path id="Patty" class="cls-2" d="M172.83,107.47A22.43,22.43,0,0,1,195,129.63h0a22.44,22.44,0,0,1-22.17,22.17H27.17A22.44,22.44,0,0,1,5,129.63H5a22.43,22.43,0,0,1,22.17-22.16"/><path id="Cheese" class="cls-2" d="M106.33,107.47H17.67A12.71,12.71,0,0,1,5,94.8H5A12.71,12.71,0,0,1,17.67,82.13H182.33A12.71,12.71,0,0,1,195,94.8h0a12.71,12.71,0,0,1-12.67,12.67H157l-25.33,19Z"/><line id="Sesame3" class="cls-2" x1="68.33" y1="63.13" x2="62" y2="56.8"/><line id="Sesame2" class="cls-2" x1="93.67" y1="50.47" x2="100" y2="44.13"/><line id="Sesame1" class="cls-2" x1="138" y1="56.8" x2="138" y2="50.47"/></g></svg>