<svg id="Cake" xmlns="http://www.w3.org/2000/svg" viewBox="0 0 200 200"><defs><style>.cls-1,.cls-2{fill:none;stroke-linecap:round;stroke-linejoin:round;stroke-width:2px;}.cls-1{stroke:#da667a;}.cls-2{stroke:#342a20;}</style></defs><title>Cake</title><line id="Bread3" class="cls-1" x1="95.4" y1="122.77" x2="193" y2="122.77"/><line id="Bread2" class="cls-1" x1="10" y1="122.77" x2="71" y2="122.77"/><path id="Icing" class="cls-2" d="M193,80,81.06,32.71a19.63,19.63,0,0,0-8.92-1.51C64,31.73,47.13,33.71,34,41,18.62,49.54,10,71,10,80H71l.28,46.06a16.67,16.67,0,0,0,6,12.94c1.73,1.4,3.7,2.33,5.7,2,6-1,12-6,12-12V80Z"/><path id="Bread" class="cls-2" d="M79.51,32.28a12.84,12.84,0,0,0-5.23-1C25.89,32.34,11,60.38,10,80.07c-1,20.1,0,85.4,0,85.4H193V80.07Z"/></svg>