<svg id="CoffeeCup" xmlns="http://www.w3.org/2000/svg" viewBox="0 0 200 200"><defs><style>.cls-1,.cls-2{fill:none;stroke-linecap:round;stroke-linejoin:round;stroke-width:2px;}.cls-1{stroke:#da667a;}.cls-2{stroke:#342a20;}</style></defs><title>CoffeeCup</title><g id="Coffee"><line id="smoke2" class="cls-1" x1="92.72" y1="7" x2="92.72" y2="25.2"/><line id="smoke2-2" data-name="smoke2" class="cls-1" x1="62.39" y1="19.13" x2="62.39" y2="37.33"/><line id="smoke3" class="cls-1" x1="123.05" y1="19.13" x2="123.05" y2="37.33"/><path id="handle" class="cls-2" d="M159.45,61.6h24.27V91.93a12.17,12.17,0,0,1-12.13,12.14H159.45"/><path id="body" class="cls-2" d="M92.72,164.73h0A66.53,66.53,0,0,1,26,98V61.6H159.45V98A66.53,66.53,0,0,1,92.72,164.73Z"/><path id="saucer" class="cls-2" d="M147.32,189H38.12a24.34,24.34,0,0,1-24.27-24.27H171.59A24.34,24.34,0,0,1,147.32,189Z"/></g></svg>