<svg id="IceCream" xmlns="http://www.w3.org/2000/svg" viewBox="0 0 200 200"><defs><style>.cls-1,.cls-2{fill:none;stroke-linecap:round;stroke-linejoin:round;stroke-width:2px;}.cls-1{stroke:#da667a;}.cls-2{stroke:#342a20;}</style></defs><title>IceCream</title><g id="IceCreamSet"><path id="Cone" class="cls-1" d="M137.69,99l-30,84.6c-2.4,7.2-12.6,7.2-15.6,0L62.09,99"/><path id="Cream2" class="cls-2" d="M51.89,51.6a22.51,22.51,0,0,1,6-.6,24.2,24.2,0,0,1,21,12"/><path id="Cream1" class="cls-2" d="M147.89,51.6a22.51,22.51,0,0,0-6-.6,24.2,24.2,0,0,0-21,12"/><path id="Cream" class="cls-2" d="M147.89,51.6c-2.4-24-22.8-42.6-48-42.6s-45,18.6-48,42.6c-10.2,2.4-18,12-18,23.4a24.07,24.07,0,0,0,24,24h84a24.07,24.07,0,0,0,24-24C165.89,63.6,158.09,54.6,147.89,51.6Z"/></g></svg>