<svg id="Meat" xmlns="http://www.w3.org/2000/svg" viewBox="0 0 200 200"><defs><style>.cls-1,.cls-2{fill:none;stroke-linecap:round;stroke-linejoin:round;stroke-width:2px;}.cls-1{stroke:#da667a;}.cls-2{stroke:#342a20;}</style></defs><title>Meat</title><g id="MeatSet"><path id="Bottom" class="cls-1" d="M3,64.2V96.87c0,28.09,27.44,71.86,98,71.86,73.17,0,98-3.26,98-34V103.4"/><path id="Top" class="cls-2" d="M48.73,25C22.6,25,3,43.29,3,67.47c0,28.09,27.44,68.6,98,68.6,73.17,0,98-2,98-32.67,0-20.25-25.48-32.67-52.27-32.67C103.61,70.73,108.19,25,48.73,25Z"/><path id="Top2" class="cls-1" d="M83.36,76.61c0,7.19-17,14.38-27.44,12.42-9.8-2-17-11.76-17-19s4.58-15,14.38-15S83.36,66.81,83.36,76.61Z"/></g></svg>